<svg id="eed0c798-64fe-44b3-a45c-6a502dc763c8" data-name="Layer 1" xmlns="http://www.w3.org/2000/svg" viewBox="0 0 201.3 225.11"><defs><style>.a0ac6539-7d74-4f90-940c-86a71159e7ae{fill:#151514;}.a0ac6539-7d74-4f90-940c-86a71159e7ae,.a6be37d5-5504-4186-9c9d-29ad5df517b6,.a895eb79-0f0b-47bc-91a3-e36ea0b579fb,.aa65030a-4a89-4ad2-a3e8-0f3d27a8be1e,.ab107423-fb45-4d81-ac8d-a7dafec5644f,.ac12aad5-cb13-4c54-a0bb-757163e701a6,.ace31cf1-211d-4ac6-a7d1-c73860697de0,.ae816a93-fc5b-4c7b-b98e-aa046682fcfb,.af0f4daf-7856-4a96-a7a7-8122f9769d48,.af3e05c7-57eb-44a8-a504-f10f49efd8d3,.b0e848fe-c317-44db-b2c1-55f2fa0e046c,.b518d4ce-4819-41cb-b8e9-405573df4cd3,.ba514f5d-57cd-479c-8745-29cf42d5bc8c,.bc3d83e5-e73a-4c6d-9d57-6783284f7f7a,.bcd96bc2-fa25-4ebf-8cd8-5eaf316a2c39,.bf9d411a-2506-4082-883d-76c94323bc14,.e0c08e79-9c33-43c2-900b-0b66fa20c930,.e2224ee0-b414-4063-ba90-a648f01fee65,.e40ef85a-3a3c-47df-a8d7-d035e1b2dec9,.ebf2d324-9ac3-47fe-805a-e1657d8e505f,.f10fd434-f551-4049-9bbf-25a99a95663f,.f2049d87-7cd1-4862-a325-3c657b78e816,.f44157dc-66a8-4320-a077-003f0ea4bd71,.f7598336-a101-4ceb-bdde-63b8f16f00dc,.f8fe85bf-cf73-4a1a-8e8f-70854a6b9335,.f9b45fba-57d7-41e8-9b1b-63e61e5bcc6f,.fa9ecb65-3aed-4b41-8aa9-447d51baee25,.fb1f48b3-2017-4121-9302-88f98fe126a8,.fc25fda4-9753-4fe3-9916-017a6dd68831{fill-rule:evenodd;}.af0f4daf-7856-4a96-a7a7-8122f9769d48{fill:#096;}.e2224ee0-b414-4063-ba90-a648f01fee65{fill:#a41b23;}.f8fe85bf-cf73-4a1a-8e8f-70854a6b9335{fill:#f1a049;}.b518d4ce-4819-41cb-b8e9-405573df4cd3{fill:#ffe3ab;}.f7598336-a101-4ceb-bdde-63b8f16f00dc{fill:#f39455;}.fb1f48b3-2017-4121-9302-88f98fe126a8{fill:#a6c714;}.bf9d411a-2506-4082-883d-76c94323bc14{fill:#e96086;}.bcd96bc2-fa25-4ebf-8cd8-5eaf316a2c39{fill:#efcc47;}.aa65030a-4a89-4ad2-a3e8-0f3d27a8be1e{fill:#93529b;}.bc3d83e5-e73a-4c6d-9d57-6783284f7f7a{fill:#693b82;}.ac12aad5-cb13-4c54-a0bb-757163e701a6{fill:#99d0e4;}.fa9ecb65-3aed-4b41-8aa9-447d51baee25{fill:#842351;}.f2049d87-7cd1-4862-a325-3c657b78e816{fill:#1f2133;}.fc25fda4-9753-4fe3-9916-017a6dd68831{fill:#266b77;}.ba514f5d-57cd-479c-8745-29cf42d5bc8c{fill:#484092;}.f44157dc-66a8-4320-a077-003f0ea4bd71{fill:#fff;}.ebf2d324-9ac3-47fe-805a-e1657d8e505f{fill:#ad72ae;}.ab107423-fb45-4d81-ac8d-a7dafec5644f{fill:#fcd3a4;}.a895eb79-0f0b-47bc-91a3-e36ea0b579fb{fill:#07899a;}.e40ef85a-3a3c-47df-a8d7-d035e1b2dec9{fill:#f9c09c;}.e0c08e79-9c33-43c2-900b-0b66fa20c930{fill:#a74522;}.af3e05c7-57eb-44a8-a504-f10f49efd8d3{fill:#f9b343;}.ace31cf1-211d-4ac6-a7d1-c73860697de0{fill:#c87522;}.b0e848fe-c317-44db-b2c1-55f2fa0e046c{fill:#d8e5ee;}.f10fd434-f551-4049-9bbf-25a99a95663f{fill:#f7b387;}.a6be37d5-5504-4186-9c9d-29ad5df517b6{fill:#561a26;}.ae816a93-fc5b-4c7b-b98e-aa046682fcfb{fill:#2a3866;}.f9b45fba-57d7-41e8-9b1b-63e61e5bcc6f{fill:#0f955f;}</style></defs><polygon class="a0ac6539-7d74-4f90-940c-86a71159e7ae" points="28.73 181.64 48.5 202.16 65.1 223.29 57.71 207.44 64.71 203.85 51.75 169.34 28.73 181.64 28.73 181.64"/><path class="af0f4daf-7856-4a96-a7a7-8122f9769d48" d="M40.91,210.27l-8.85-4.59-8.14,4.71L7.33,223.92H33l7.88-13.65ZM45,211.72l-3-1.86-5.3,13.62,6.08,1.63L45,211.72Z"/><polygon class="e2224ee0-b414-4063-ba90-a648f01fee65" points="135.19 148.23 144.58 148.23 165.77 175.31 164.66 180.84 167.61 180.29 184.69 199.87 201.3 205.06 201.3 221.1 178.09 197.9 138.73 208.45 125.56 221.61 103.69 215.75 122.99 203.15 122.99 193.27 135.19 148.23 135.19 148.23"/><polygon class="a0ac6539-7d74-4f90-940c-86a71159e7ae" points="122.99 203.15 122.99 193.27 133.11 155.9 137.12 151.2 144.52 151.2 159.7 179.88 122.99 203.15 122.99 203.15"/><polygon class="e2224ee0-b414-4063-ba90-a648f01fee65" points="56.85 171 50.47 152.66 24.72 172.16 12.64 201.15 55.91 218.28 45.06 177.81 56.85 171 56.85 171"/><polygon class="f8fe85bf-cf73-4a1a-8e8f-70854a6b9335" points="46.94 151.38 55.06 201.6 73.38 214.16 86.09 204 98.7 204 83.59 164.69 46.94 151.38 46.94 151.38"/><polygon class="b518d4ce-4819-41cb-b8e9-405573df4cd3" points="49.48 167.11 55.06 201.6 61.36 205.78 68.06 201.91 62.04 179.46 49.48 167.11 49.48 167.11"/><polygon class="f7598336-a101-4ceb-bdde-63b8f16f00dc" points="141.51 158.16 144.96 186.95 136.19 193.08 128.58 163.04 141.51 158.16 141.51 158.16"/><polygon class="b518d4ce-4819-41cb-b8e9-405573df4cd3" points="134.56 112.58 140.09 117.47 141.51 158.16 130.72 164.39 121.38 146.47 134.56 112.58 134.56 112.58"/><polygon class="f7598336-a101-4ceb-bdde-63b8f16f00dc" points="123.86 149.59 132.44 132.06 135.53 137.41 128.35 152.41 123.86 149.59 123.86 149.59"/><polygon class="fb1f48b3-2017-4121-9302-88f98fe126a8" points="139.24 116.72 140.09 117.47 140.39 126.02 130 126.02 130 124.31 132.96 116.72 139.24 116.72 139.24 116.72"/><polygon class="bf9d411a-2506-4082-883d-76c94323bc14" points="133.97 134.69 127.34 149.77 128.01 150.26 134.65 137.21 137.12 137.21 137.12 161.28 134.45 165.9 136.19 167.64 136.19 193.08 95.14 214.49 77.55 182.46 102.92 146.82 133.97 134.69 133.97 134.69"/><polygon class="bcd96bc2-fa25-4ebf-8cd8-5eaf316a2c39" points="137.12 160.7 137.12 161.28 134.45 165.9 136.19 167.64 136.19 193.08 123.02 199.95 123.02 168.84 137.12 160.7 137.12 160.7"/><polygon class="aa65030a-4a89-4ad2-a3e8-0f3d27a8be1e" points="89.42 204.08 77.55 182.46 85.31 171.57 117.68 162.9 122.61 164.22 114.19 181.73 97.14 186.3 104.82 190.74 104.82 204.08 89.42 204.08 89.42 204.08"/><polygon class="bc3d83e5-e73a-4c6d-9d57-6783284f7f7a" points="46.94 151.38 65.7 171.54 68.86 171.54 68.39 173.31 77.55 182.46 116.83 166.63 129.79 150.63 105.55 163.39 102.97 163.39 93.45 157.9 46.94 142.28 46.94 151.38 46.94 151.38"/><polygon class="f7598336-a101-4ceb-bdde-63b8f16f00dc" points="128.19 19.36 135.39 19.36 142.82 31.56 142.59 33.86 144.2 34.15 146.74 38.97 146.74 42.54 142.98 46.3 123.23 23.33 128.19 19.36 128.19 19.36"/><polygon class="ac12aad5-cb13-4c54-a0bb-757163e701a6" points="120.67 16.65 124.67 10.31 130.42 13.63 128.5 18.3 131.81 15.17 133.01 15.34 123.52 24.07 120.67 16.65 120.67 16.65"/><polygon class="fa9ecb65-3aed-4b41-8aa9-447d51baee25" points="120.64 12.26 126.67 18.29 123.94 23.02 131.5 16.51 135.42 18.77 130.49 18.77 125.84 22.9 130.31 20.75 139.96 30.39 139.96 32.95 139.32 34.04 141.45 35.27 141.45 49.29 145.22 55.81 141.75 56.74 106.2 32.28 120.64 12.26 120.64 12.26"/><polygon class="f2049d87-7cd1-4862-a325-3c657b78e816" points="123.97 44.51 111.92 36.22 125.17 31.05 125.17 40.04 123.97 44.51 123.97 44.51"/><polygon class="f2049d87-7cd1-4862-a325-3c657b78e816" points="125.36 47.87 127.88 38.47 135.99 43.15 142.43 54.31 138.04 37.91 140.27 36.62 142.6 45.32 142.6 41.77 147.42 40.48 153.01 55.81 153.01 65.58 151.36 66.54 153.38 67.7 152.01 84.37 146.76 91.16 134.86 88.21 125.01 55.13 125.36 47.87 125.36 47.87"/><polygon class="fc25fda4-9753-4fe3-9916-017a6dd68831" points="137.16 78.96 143.28 85.08 143.28 89.22 145.64 85.12 152.64 89.16 137.99 119.64 135.96 119.64 130.11 107.33 137.16 78.96 137.16 78.96"/><polygon class="bf9d411a-2506-4082-883d-76c94323bc14" points="120.52 59 121.47 39.76 132.44 48.13 128.59 50.35 132.53 52.63 131.91 53.26 127.25 50.57 130.33 53.56 129.41 56.97 138.63 70.69 127.22 65.15 120.52 59 120.52 59"/><polygon class="fb1f48b3-2017-4121-9302-88f98fe126a8" points="148.39 88.95 142.86 96.48 140.75 104.34 139.5 104.68 140.85 106.02 139.55 109.86 143.97 111.75 154.67 107.25 155.16 89.36 148.39 88.95 148.39 88.95"/><polygon class="b518d4ce-4819-41cb-b8e9-405573df4cd3" points="147.56 110.24 154.67 107.25 154.9 99.03 147.56 99.03 147.56 110.24 147.56 110.24"/><polygon class="bcd96bc2-fa25-4ebf-8cd8-5eaf316a2c39" points="156.85 85.81 150.14 83.44 141.53 95.82 144.82 99.11 148.11 90.17 156.85 85.81 156.85 85.81"/><polygon class="aa65030a-4a89-4ad2-a3e8-0f3d27a8be1e" points="156.38 85.74 155.21 85.96 148.11 90.17 153.73 91.68 153.73 108.13 156.69 105.39 158.51 89.13 156.38 85.74 156.38 85.74"/><polygon class="bf9d411a-2506-4082-883d-76c94323bc14" points="153.73 99.03 153.73 108.13 156.69 105.39 157.4 99.03 153.73 99.03 153.73 99.03"/><polygon class="fb1f48b3-2017-4121-9302-88f98fe126a8" points="109.13 16.7 122.28 16.64 122.28 8.44 115.48 5.17 115.48 12.31 112.35 3.33 101.45 0.41 103.68 8.73 103.68 3.74 109.13 3.74 109.13 16.7 109.13 16.7"/><polygon class="ac12aad5-cb13-4c54-a0bb-757163e701a6" points="98.05 5.96 83.35 7.27 78.73 2.65 89.05 0.84 93 3.12 91.2 0 94.6 0 98.05 5.96 98.05 5.96"/><polygon class="a0ac6539-7d74-4f90-940c-86a71159e7ae" points="61.81 14.85 50.71 17.34 38.57 31.68 40.09 32.55 37.21 33.32 29.75 50.23 29.96 59.22 31.07 60.33 29.97 60.95 31.68 82.46 35.03 116.08 37.75 118.01 90.08 29.51 75.43 12.68 61.81 14.85 61.81 14.85"/><polygon class="f2049d87-7cd1-4862-a325-3c657b78e816" points="75.99 29.11 59.91 19.69 50.45 25.16 70.97 29.59 75.99 29.11 75.99 29.11"/><polygon class="ba514f5d-57cd-479c-8745-29cf42d5bc8c" points="32.11 86.82 35.03 116.08 37.75 118.01 54.76 89.25 54.76 86.82 32.11 86.82 32.11 86.82"/><polygon class="f2049d87-7cd1-4862-a325-3c657b78e816" points="89.12 8.19 77.42 3.99 63.01 8.6 66.48 10.61 60.54 10.61 53.95 15.52 73.31 15.52 75.16 22.43 76.97 23.48 76.17 24.28 78.37 32.49 95.36 32.49 95.03 11.44 89.12 8.19 89.12 8.19"/><polygon class="ba514f5d-57cd-479c-8745-29cf42d5bc8c" points="84.33 32.49 90.87 32.49 88.32 22.97 84.33 25.27 84.33 32.49 84.33 32.49"/><polygon class="ac12aad5-cb13-4c54-a0bb-757163e701a6" points="120.92 54.99 138.63 70.69 138.63 81.8 139.84 83.01 138.42 84.43 138.42 98.21 134.56 112.58 137.1 118.92 133.97 134.69 125.83 134.69 114.71 65.09 120.92 54.99 120.92 54.99"/><polygon class="f7598336-a101-4ceb-bdde-63b8f16f00dc" points="138.29 98.7 134.56 112.58 137.1 118.92 133.97 134.69 125.83 134.69 123.05 117.26 123.05 98.7 138.29 98.7 138.29 98.7"/><polygon class="f44157dc-66a8-4320-a077-003f0ea4bd71" points="121.18 66.16 126.12 64.63 136.96 84.68 136.96 98.74 127.63 101.24 121.18 66.16 121.18 66.16"/><polygon class="fb1f48b3-2017-4121-9302-88f98fe126a8" points="35.81 109.65 35.81 102.7 36.06 101.79 35.07 100.08 35.07 90.28 33.14 85.92 27.14 85.92 27.14 95.17 30.73 108.66 35.81 109.65 35.81 109.65"/><polygon class="bcd96bc2-fa25-4ebf-8cd8-5eaf316a2c39" points="26.27 95.59 26.95 89.3 32.08 89.3 34.58 95.71 31.82 100.49 31.82 108.73 29.65 108.6 26.27 95.59 26.27 95.59"/><polygon class="bf9d411a-2506-4082-883d-76c94323bc14" points="32.66 87.84 29.32 87.84 27.82 95.88 27.82 102.36 24.72 88.83 26.2 84.05 29.35 84.05 32.66 87.84 32.66 87.84"/><polygon class="f44157dc-66a8-4320-a077-003f0ea4bd71" points="38.5 118.59 34.79 118.59 27.8 108.42 24.49 88.86 26.39 82.03 31.5 82.03 34.79 89.81 28.28 84.74 26.35 84.74 25.2 89.03 30.33 107.62 35.81 107.62 35.81 115.64 37.97 117.28 38.5 118.59 38.5 118.59"/><polygon class="ebf2d324-9ac3-47fe-805a-e1657d8e505f" points="109.12 122.79 125.78 98.7 136.97 98.7 129.79 125.5 129.79 138.3 109.12 138.3 109.12 122.79 109.12 122.79"/><polygon class="bf9d411a-2506-4082-883d-76c94323bc14" points="112.09 118.7 123.88 130.49 120.19 136.89 131.47 130.38 133.97 134.69 103.32 163.38 98.22 163.38 95.58 164.69 74.41 164.69 72.82 163.77 71.63 165.83 71.04 165.83 71.04 164.73 69.99 165.34 63.91 165.34 60.27 162.77 56.87 153.78 112.09 118.7 112.09 118.7"/><polygon class="f7598336-a101-4ceb-bdde-63b8f16f00dc" points="90.1 154.07 104.66 143.72 119.27 143.72 102.4 161.17 90.1 154.07 90.1 154.07"/><polygon class="f7598336-a101-4ceb-bdde-63b8f16f00dc" points="59.13 159.75 57.44 155.28 98.18 155.28 100.36 162.79 92.26 162.79 91.27 161.08 91.27 163.62 90.46 163.62 89.32 161.65 88.48 163.1 74.38 163.1 70.64 160.94 68.39 162.24 59.13 159.75 59.13 159.75"/><polygon class="aa65030a-4a89-4ad2-a3e8-0f3d27a8be1e" points="112.09 118.7 119.56 126.17 119.56 136.26 98.65 157.17 93.9 154.42 103.46 124.19 112.09 118.7 112.09 118.7"/><polygon class="ebf2d324-9ac3-47fe-805a-e1657d8e505f" points="112.1 143.72 98.65 157.17 93.9 154.42 97.28 143.72 112.1 143.72 112.1 143.72"/><polygon class="ab107423-fb45-4d81-ac8d-a7dafec5644f" points="111.94 130.76 98.18 155.28 98.65 157.17 95.32 156.96 57.02 156.44 47.89 130.07 110.69 116.83 111.94 130.76 111.94 130.76"/><polygon class="bcd96bc2-fa25-4ebf-8cd8-5eaf316a2c39" points="111.94 130.76 104.66 143.72 75.34 143.72 75.34 124.28 91.75 120.82 111.05 120.82 111.94 130.76 111.94 130.76"/><polygon class="f44157dc-66a8-4320-a077-003f0ea4bd71" points="61.33 122.86 53.15 130.72 65.36 154.09 91.56 154.09 67.38 137.1 83.35 137.1 61.33 122.86 61.33 122.86"/><polygon class="f8fe85bf-cf73-4a1a-8e8f-70854a6b9335" points="72.41 136.61 75.73 139.08 94.22 139.08 98.56 132.63 104.75 130.3 103.86 126.64 72.41 136.61 72.41 136.61"/><polygon class="fc25fda4-9753-4fe3-9916-017a6dd68831" points="91.98 33.95 110.48 36.77 112.84 34.66 110.2 33.31 122.28 29.15 122.28 13.9 115.02 6.65 115.02 16.26 111.78 4.16 105.75 2.55 108.83 14.03 108.25 14.43 105.39 3.74 79.83 3.75 91.98 15.9 91.98 33.95 91.98 33.95"/><polygon class="a895eb79-0f0b-47bc-91a3-e36ea0b579fb" points="102.34 3.74 96.56 3.74 100.98 13.78 104.17 10.58 102.34 3.74 102.34 3.74"/><polygon class="bf9d411a-2506-4082-883d-76c94323bc14" points="53.09 35.61 50.9 32.64 60.52 26.48 67.73 28.42 68.6 26.91 72.18 26.91 76.69 29.51 90.08 29.51 91.27 33.95 53.09 35.61 53.09 35.61"/><polygon class="bf9d411a-2506-4082-883d-76c94323bc14" points="48.9 64.5 43.92 54.77 35.88 62.81 36.93 79.8 39.37 82.24 48.9 64.5 48.9 64.5"/><polygon class="bcd96bc2-fa25-4ebf-8cd8-5eaf316a2c39" points="37.25 116.56 37.25 139.02 60.27 162.77 51.63 123.91 37.25 115.63 37.25 116.56 37.25 116.56"/><polygon class="b518d4ce-4819-41cb-b8e9-405573df4cd3" points="65.28 126.6 53.87 133.18 37.25 116.56 37.25 87.51 39.7 85.05 66.64 85.05 99.75 118.16 90.61 127.73 65.28 126.6 65.28 126.6"/><polygon class="fb1f48b3-2017-4121-9302-88f98fe126a8" points="130.11 79.23 130.11 107.33 115.59 119.39 111.94 130.76 107.5 122.79 98.19 107.35 99.32 81.43 130.11 79.23 130.11 79.23"/><polygon class="e40ef85a-3a3c-47df-a8d7-d035e1b2dec9" points="79.24 105.26 77.84 110.48 69.97 112.69 69.56 114.24 66.09 113.31 57.88 118.52 66.6 118.52 76.87 114.26 82.21 115.69 87.07 114.39 96.89 114.39 79.24 105.26 79.24 105.26"/><polygon class="ab107423-fb45-4d81-ac8d-a7dafec5644f" points="72.7 111.92 69.97 112.69 69.56 114.24 66.09 113.31 57.88 118.52 66.6 118.52 73.68 115.58 72.7 111.92 72.7 111.92"/><polygon class="f2049d87-7cd1-4862-a325-3c657b78e816" points="106.14 36.99 93.81 34.81 93.81 21.2 105.56 21.2 103 30.71 108.09 21.9 108.09 17.63 109.34 17.63 109.34 30.97 116.18 24.13 121.97 29.93 106.14 36.99 106.14 36.99"/><polygon class="bcd96bc2-fa25-4ebf-8cd8-5eaf316a2c39" points="73.18 106.51 77.28 106.51 94.55 114.56 95.8 119.23 85.67 119.23 102.21 128.7 110.65 123.83 98.76 103.72 75.45 103.62 73.18 106.51 73.18 106.51"/><path class="f44157dc-66a8-4320-a077-003f0ea4bd71" d="M80,119.73l4.81,1.09,4-4-5.36-1.44-1.3.35-5.34-1.43-8.94,3.34,3.12,1.81h9v.32Zm-14.31-.81,1.76-.89,2,1.42-1.92.52-1.81-1Z"/><polygon class="f8fe85bf-cf73-4a1a-8e8f-70854a6b9335" points="103.25 128.1 110.65 123.83 106.45 116.73 98.26 121.46 91.2 121.46 103.25 128.1 103.25 128.1"/><polygon class="bf9d411a-2506-4082-883d-76c94323bc14" points="73.18 106.51 77.28 106.51 83.89 109.59 96.8 109.59 99.57 105.11 99.15 104.4 94.49 103.7 80.28 103.64 73.83 105.68 73.18 106.51 73.18 106.51"/><polygon class="bf9d411a-2506-4082-883d-76c94323bc14" points="101.69 128.4 102.21 128.7 108.74 124.94 106.26 120.64 103.43 123.46 98.13 123.46 101.69 128.4 101.69 128.4"/><polygon class="bcd96bc2-fa25-4ebf-8cd8-5eaf316a2c39" points="43.27 71.1 37.38 81.19 37.38 86.73 59.3 86.73 73.88 81.57 73.88 76.3 43.27 71.1 43.27 71.1"/><polygon class="f8fe85bf-cf73-4a1a-8e8f-70854a6b9335" points="51.98 81.61 50.88 72.39 43.96 79.31 47.53 82.88 51.98 81.61 51.98 81.61"/><polygon class="b518d4ce-4819-41cb-b8e9-405573df4cd3" points="59.75 77.34 67.94 77.34 67.94 80.64 62.83 80.64 65.73 78.8 59.75 78.8 59.75 77.34 59.75 77.34"/><polygon class="bf9d411a-2506-4082-883d-76c94323bc14" points="63.98 126.51 61.61 127.6 73.47 137.49 91.6 137.67 101.62 128.94 63.98 126.51 63.98 126.51"/><path class="e0c08e79-9c33-43c2-900b-0b66fa20c930" d="M88.07,137.63l3.53,0,10-8.73-6-.39v3.8l-7.55,5.28Zm-24.35-11-2.11,1,4.26,3.55,4.1-3.83-6.25-.68Z"/><polygon class="af3e05c7-57eb-44a8-a504-f10f49efd8d3" points="66.49 131.66 72.88 136.99 82.9 136.69 87.96 131.57 93.44 131.57 94.36 130.66 75.07 130.66 70.4 129.41 66.49 131.66 66.49 131.66"/><path class="b518d4ce-4819-41cb-b8e9-405573df4cd3" d="M67.87,132.82l4,3.3h7.34v-3.3Zm12.92,1.6-1.17.06.34-1.79h1.82l-1,1.73Z"/><polygon class="fb1f48b3-2017-4121-9302-88f98fe126a8" points="69.36 128.37 78.24 129.92 85.54 129.15 97.95 129.15 100.36 125.14 91.28 120.82 75.34 120.82 66.87 124.51 69.36 128.37 69.36 128.37"/><polygon class="ace31cf1-211d-4ac6-a7d1-c73860697de0" points="94.33 129.15 96.36 129.15 98.79 127.74 99.05 127.31 97.2 123.64 97.2 123.64 94.33 123.11 94.33 129.15 94.33 129.15"/><polygon class="b0e848fe-c317-44db-b2c1-55f2fa0e046c" points="76.23 128.05 73.6 128.05 72.45 125.89 75.07 124.16 76.47 124.97 77.76 123.52 81.17 123.52 82.72 124.67 83.97 123.42 87.79 123.42 88.78 125.13 92.04 124.25 94 126 90.91 128.95 76.2 129.39 76.23 128.05 76.23 128.05"/><polygon class="b0e848fe-c317-44db-b2c1-55f2fa0e046c" points="71.52 128.75 70.37 126.62 71.67 125.32 72.62 127.7 71.52 128.75 71.52 128.75"/><polygon class="fb1f48b3-2017-4121-9302-88f98fe126a8" points="95.47 129.15 95.72 129.15 96.48 127.83 95.08 126.4 93.75 128.71 95.47 129.15 95.47 129.15"/><path class="f44157dc-66a8-4320-a077-003f0ea4bd71" d="M72.93,126.79l3-.61v1.87H73.6l-.67-1.26Zm16.94.11h1.47v.83H89.87v-.83Zm-6.52,1-.25-1.16h2.47l-.67,1.16Zm-5.88.85,3.94-.07.84-2.11-4.78-1.16v3.34Z"/><polygon class="fa9ecb65-3aed-4b41-8aa9-447d51baee25" points="98.28 128.61 99.29 126.91 99.29 124.64 91.28 120.82 75.34 120.82 69.76 123.25 68.39 124.36 68.96 127.75 68.96 127.75 70.27 128.53 69.67 124.56 71.63 124.03 72.38 124.23 73.43 122.98 75.92 122.7 76.53 123.34 77.56 122.03 82.13 122.03 82.67 123.21 83.05 123.21 83.68 122.11 87.91 122.11 89.14 123.65 89.61 123.65 90.65 122.61 94.1 123.94 94.26 124.55 95.03 124.1 97.37 125.45 97.37 129.15 98.28 128.61 98.28 128.61"/><polygon class="ac12aad5-cb13-4c54-a0bb-757163e701a6" points="119.58 84.72 125.03 84.72 126.79 83.7 130.11 85.62 130.11 79.23 128.94 78.91 130.03 77.02 128.49 73.58 117.96 80.07 119.58 84.72 119.58 84.72"/><polygon class="b518d4ce-4819-41cb-b8e9-405573df4cd3" points="97.68 105.44 99.77 105.44 106.47 116.83 114.92 116.83 127.86 95.23 120.88 85.68 112.65 87.71 101.35 84.45 101.35 83.96 106.54 85.35 113.61 85.35 113.61 82.51 115.97 78.43 98.8 73.11 89.92 78.23 89.92 98.65 97.68 105.44 97.68 105.44"/><path class="f44157dc-66a8-4320-a077-003f0ea4bd71" d="M117,113.42l8.82-14.72L103.73,86l-2.55,15.09L117,113.42Zm-7.8-30.75-1-.19-.33,1.21,1.29.35V82.67Zm-4.46-1.24H97.22l1.51,2.63,4.94-1.33,3.39.74.67-1.16-3-.88Z"/><polygon class="bf9d411a-2506-4082-883d-76c94323bc14" points="94.62 79.47 97.79 79.47 100.53 75.47 99.26 74.72 94.62 79.47 94.62 79.47"/><polygon class="e0c08e79-9c33-43c2-900b-0b66fa20c930" points="48.67 79.11 51.69 79.11 57.21 73.59 54.81 71.9 48.67 79.11 48.67 79.11"/><polygon class="bcd96bc2-fa25-4ebf-8cd8-5eaf316a2c39" points="71.29 78.4 71.29 81 76.39 81 78.6 73.44 68.72 73.44 68.48 75.5 71.29 78.4 71.29 78.4"/><polygon class="ebf2d324-9ac3-47fe-805a-e1657d8e505f" points="113.64 78.44 113.64 81.28 107.72 81.28 106.29 81.67 104.31 81.14 103.5 81.95 113.34 83.79 116.77 83.1 119.58 84.72 122.49 83.04 119.15 79.54 113.64 78.44 113.64 78.44"/><polygon class="f7598336-a101-4ceb-bdde-63b8f16f00dc" points="113.64 81.28 107.72 81.28 106.29 81.67 104.31 81.14 103.5 81.95 113.34 83.79 113.64 83.73 113.64 81.28 113.64 81.28"/><polygon class="ebf2d324-9ac3-47fe-805a-e1657d8e505f" points="55.95 78.09 55.95 79.87 56.55 79.27 59.75 80.64 62.94 80.64 61.66 81.38 56.25 81.38 55.53 80.66 51.06 81.86 49.91 79.94 54.23 76.81 55.95 78.09 55.95 78.09"/><polygon class="f7598336-a101-4ceb-bdde-63b8f16f00dc" points="55.95 79.87 56.55 79.27 59.75 80.64 62.94 80.64 61.66 81.38 56.25 81.38 55.95 81.08 55.95 79.87 55.95 79.87"/><polygon class="f10fd434-f551-4049-9bbf-25a99a95663f" points="44.18 66.71 41.86 70.46 50.98 75.72 55.28 70.97 60.46 70.97 63.93 66.59 53.62 62.29 44.18 66.71 44.18 66.71"/><polygon class="ebf2d324-9ac3-47fe-805a-e1657d8e505f" points="48.8 74.47 50.98 75.72 55.28 70.97 60.46 70.97 63.14 67.59 63.13 66.26 57.81 64.04 53.81 63.31 46.11 66.44 56.82 66.44 48.8 74.47 48.8 74.47"/><polygon class="ebf2d324-9ac3-47fe-805a-e1657d8e505f" points="115.92 76.19 119.87 80.29 124.71 80.29 128.53 74.89 124.54 69.32 115.92 76.19 115.92 76.19"/><polygon class="bf9d411a-2506-4082-883d-76c94323bc14" points="107.31 74.67 115.92 76.19 123.27 76.19 125.33 68.51 114.71 65.09 103.69 68.31 107.31 74.67 107.31 74.67"/><polygon class="f10fd434-f551-4049-9bbf-25a99a95663f" points="113.84 75.82 115.92 76.19 123.27 76.19 125.2 68.98 113.84 68.98 113.84 75.82 113.84 75.82"/><polygon class="bf9d411a-2506-4082-883d-76c94323bc14" points="93.92 81.42 93.92 78.03 94.61 78.03 94.61 67.44 86.03 67.44 86.03 82.25 93.92 81.42 93.92 81.42"/><polygon class="f7598336-a101-4ceb-bdde-63b8f16f00dc" points="93.92 80.65 93.92 78.99 88.52 73.59 88.52 67.44 87.61 67.44 86.03 70.18 86.03 81.05 87.19 81.85 93.92 80.65 93.92 80.65"/><polygon class="f8fe85bf-cf73-4a1a-8e8f-70854a6b9335" points="73.08 68.87 74.22 74.15 78.13 74.15 79.55 68.87 73.08 68.87 73.08 68.87"/><polygon class="bc3d83e5-e73a-4c6d-9d57-6783284f7f7a" points="69.5 72.79 71.27 74.12 69.23 75.3 66.61 72.79 69.5 72.79 69.5 72.79"/><polygon class="fc25fda4-9753-4fe3-9916-017a6dd68831" points="63.41 66.11 59.96 69.96 54.58 69.96 47.42 77.11 47.42 79.11 54.81 71.9 68.45 71.9 72.49 75.88 75.32 73.98 75.32 68.16 75.4 68.16 75.4 67.71 63.41 66.11 63.41 66.11"/><polygon class="fb1f48b3-2017-4121-9302-88f98fe126a8" points="93.92 95.03 93.92 80.21 81.29 80.21 65.48 102.67 69.75 106.48 87.12 104.33 96.06 105.44 96.9 100.3 93.92 95.03 93.92 95.03"/><polygon class="bcd96bc2-fa25-4ebf-8cd8-5eaf316a2c39" points="69.01 97.66 65.48 102.67 66.6 103.67 71.44 103.67 71.44 97.66 69.01 97.66 69.01 97.66"/><polygon class="ace31cf1-211d-4ac6-a7d1-c73860697de0" points="98.73 105.44 98.73 102.03 93.92 95.03 91.61 97.34 96.48 100.15 94.23 104.04 88.17 100.54 85.76 102.98 71.31 102.98 73.21 104.96 81.17 105.87 90.42 105.73 95.25 106.68 98.73 105.44 98.73 105.44"/><polygon class="fa9ecb65-3aed-4b41-8aa9-447d51baee25" points="91.85 103.4 78.86 103.5 79.81 105.16 78.69 105.36 75.82 103.52 75.07 103.52 69.41 105.04 70.08 107.93 76.73 106.2 79.35 106.2 81.07 108.2 85.65 108.2 87.73 106.11 95.47 108.33 98.73 105.44 94.79 105.44 91.85 103.4 91.85 103.4"/><polygon class="a6be37d5-5504-4186-9c9d-29ad5df517b6" points="88.87 104.13 85.37 104.54 84.23 106.04 88.87 106.04 88.87 104.13 88.87 104.13"/><polygon class="bcd96bc2-fa25-4ebf-8cd8-5eaf316a2c39" points="70.67 97.57 74.9 101.8 85.75 101.8 90.88 96.3 87.19 92.61 87.19 74.32 80.08 74.32 70.67 97.57 70.67 97.57"/><polygon class="fc25fda4-9753-4fe3-9916-017a6dd68831" points="120.67 79.09 119.87 80.29 110.3 73.38 114.41 73.05 120.67 79.09 120.67 79.09"/><polygon class="ba514f5d-57cd-479c-8745-29cf42d5bc8c" points="114.19 76.19 110.8 73.73 110.8 73.34 114.41 73.05 117.66 76.19 114.19 76.19 114.19 76.19"/><polygon class="fb1f48b3-2017-4121-9302-88f98fe126a8" points="68.4 64 73.08 69.16 82.25 69.81 85.88 64.17 70.86 61.53 68.4 64 68.4 64"/><polygon class="bcd96bc2-fa25-4ebf-8cd8-5eaf316a2c39" points="78.3 69.53 82.25 69.81 85.88 64.17 78.3 62.84 78.3 69.53 78.3 69.53"/><polygon class="f8fe85bf-cf73-4a1a-8e8f-70854a6b9335" points="65.86 34.17 50.01 34.17 43.11 43.69 43.92 46.71 45.93 46.17 42.63 53.17 43.56 54.09 46.66 50.98 47.7 50.98 42.59 56.09 42.59 65.41 45.39 66.16 61.25 61.2 65.86 34.17 65.86 34.17"/><polygon class="fb1f48b3-2017-4121-9302-88f98fe126a8" points="108.06 34.04 112.34 32.57 126.24 43.52 124.12 53.97 126.11 54.5 123.92 55.76 123.92 66.61 105.5 63.58 108.06 34.04 108.06 34.04"/><polygon class="bcd96bc2-fa25-4ebf-8cd8-5eaf316a2c39" points="85.61 32.28 108.55 32.28 118.51 42.01 114.16 58.24 114.16 65.77 101.86 65.77 96.94 68.65 82.31 68.65 91.42 59.54 85.61 32.28 85.61 32.28"/><path class="b518d4ce-4819-41cb-b8e9-405573df4cd3" d="M57,62l-7.45-4.3V40L64.71,28.77l8.41,2h3.51l.92-.92,4.21,2.43h9.15L108.83,37l-5,14.19H100l1.5,1.49h5.37l-2.12,7.91H97.05L88,68.76l-4.81,27v4H73.27V95.2l-4.72,6.16.47,2h0l1.21,4.49-16.54,4.43h0l.36.52-2.23-3.26h0l-.75-1.09h0L43.13,97l8.7-14.48,24.36-2.4L78.9,68.15l5.3-3.06L71.45,62.51l-2.18,1.25L57,62ZM81.65,106.3l4,3.29-4-3.29Z"/><polygon class="f44157dc-66a8-4320-a077-003f0ea4bd71" points="86.98 74.32 83.88 91.71 80.08 91.71 80.08 74.32 86.98 74.32 86.98 74.32"/><path class="f44157dc-66a8-4320-a077-003f0ea4bd71" d="M52.2,59.22l-2.61-1.5V40l7.84-5.82h13.3l4,4,2.32-2.32H87.75l-3.7,13.79L64,44.26v10H82.4l0,4.94ZM85,54.28h5.47l4.93,4.94H86.33L85,54.28Z"/><path class="f44157dc-66a8-4320-a077-003f0ea4bd71" d="M55.55,111.82l-1.86.5L43.13,97l6.1-10.16H70l-14.43,25Zm28-18.45-.42,2.37v4H78.28v-6.4Z"/><polygon class="aa65030a-4a89-4ad2-a3e8-0f3d27a8be1e" points="96.25 65.63 109.93 67.88 105.47 69.07 107.86 73.22 98.52 74.69 94.42 78.75 92.52 71.23 96.25 65.63 96.25 65.63"/><polygon class="e0c08e79-9c33-43c2-900b-0b66fa20c930" points="63.91 127.99 61.02 127.49 60.66 126.17 76.45 118.58 83.52 119.24 90.31 118.78 103.15 124.12 104.17 127.75 102.74 128.49 97.93 125.01 90.4 121.91 75.26 121.91 69.21 124.37 63.91 127.99 63.91 127.99"/><path class="fa9ecb65-3aed-4b41-8aa9-447d51baee25" d="M63.91,128l-2.89-.5-.36-1.32,9.85-4.74L73,122.85l-3.75,1.52L63.91,128Zm39.31-3.62,1,3.38-1.43.74-4-2.91,4.5-1.21Z"/><polygon class="e40ef85a-3a3c-47df-a8d7-d035e1b2dec9" points="74.72 119.41 76.93 118.18 83.52 119.24 90.31 118.78 96.75 121.46 93.88 121.46 89.73 119.5 84.44 119.5 82.91 119.91 81.04 119.41 74.72 119.41 74.72 119.41"/><polygon class="ac12aad5-cb13-4c54-a0bb-757163e701a6" points="63.25 78.88 65.43 78.88 68.19 78.13 71.29 79.19 71.73 77.52 65.22 73.47 63.25 78.88 63.25 78.88"/><path class="f44157dc-66a8-4320-a077-003f0ea4bd71" d="M63.25,78.88h2.18l2.51-.68V75.59H64.45l-1.2,3.29Zm6.52-.21,1.52.52.43-1.63h-2v1.11Z"/><polygon class="fb1f48b3-2017-4121-9302-88f98fe126a8" points="57.74 72.87 59.8 78.88 55.58 78.88 53.66 76.48 57.74 72.87 57.74 72.87"/><polygon class="f44157dc-66a8-4320-a077-003f0ea4bd71" points="58.67 75.59 59.8 78.88 55.95 78.88 55.95 75.59 58.67 75.59 58.67 75.59"/><polygon class="fb1f48b3-2017-4121-9302-88f98fe126a8" points="111.22 74.33 109.84 80.09 116.91 80.09 115.97 77.32 111.22 74.33 111.22 74.33"/><polygon class="f44157dc-66a8-4320-a077-003f0ea4bd71" points="110.63 76.8 109.84 80.09 113.64 80.09 113.64 76.8 110.63 76.8 110.63 76.8"/><polygon class="ac12aad5-cb13-4c54-a0bb-757163e701a6" points="104.41 74.53 105.11 79.84 99.16 78.94 102.72 74.08 104.41 74.53 104.41 74.53"/><polygon class="f44157dc-66a8-4320-a077-003f0ea4bd71" points="104.71 76.8 105.11 79.84 102.23 79.4 102.23 76.8 104.71 76.8 104.71 76.8"/><polygon class="a0ac6539-7d74-4f90-940c-86a71159e7ae" points="103.21 75.35 103.21 77.5 105.11 79.84 109.84 80.09 111.78 77.6 111.78 74.97 115.61 77.88 117.04 81.04 119.87 80.29 116.48 76.82 111.33 73.46 114.22 73.46 120.67 79.09 120.67 78.16 114.7 72.7 110.01 71.7 109.28 72.13 108.8 71.36 102.81 71.36 94.23 78.03 94.62 79.47 99.26 75.15 99.73 75.47 96.28 79.84 99.84 79.23 102.59 75.34 103.21 75.35 103.21 75.35"/><polygon class="ae816a93-fc5b-4c7b-b98e-aa046682fcfb" points="106.56 74.59 103.84 74.59 103.84 77.24 105.38 79.36 109.49 79.59 111.09 77.52 109.16 76.43 108.27 77.25 105.96 77.25 105.96 74.9 106.56 74.59 106.56 74.59"/><polygon class="f44157dc-66a8-4320-a077-003f0ea4bd71" points="105.95 74.59 106.83 74.59 106.83 75.47 105.95 75.47 105.95 74.59 105.95 74.59"/><polygon class="a0ac6539-7d74-4f90-940c-86a71159e7ae" points="56.97 74.08 56.97 76.5 58.99 78.88 63.25 78.88 65.51 76.09 65.51 74.06 71.29 77.62 71.29 79.19 73.02 78.84 72.1 77.31 67.6 73.13 69.26 73.13 72.49 75.88 72.49 74.09 66.74 70.35 57.38 70.35 57.04 70.94 55.64 70.61 47.31 79.11 49.17 79.11 54.96 72.43 55.98 73.02 49.78 79.72 50.04 80.17 54.21 77.59 56.97 74.08 56.97 74.08"/><polygon class="ae816a93-fc5b-4c7b-b98e-aa046682fcfb" points="60.33 73.67 57.61 73.67 57.61 76.32 59.15 78.44 63.11 78.5 64.74 76.53 62.92 75.5 62.03 76.33 59.73 76.33 59.73 73.98 60.33 73.67 60.33 73.67"/><polygon class="f44157dc-66a8-4320-a077-003f0ea4bd71" points="59.72 73.67 60.59 73.67 60.59 74.54 59.72 74.54 59.72 73.67 59.72 73.67"/><polygon class="a0ac6539-7d74-4f90-940c-86a71159e7ae" points="63.02 127.87 69.21 124.37 70.18 128.14 71.99 128.14 72.57 127.32 73.28 128.16 75.7 128.16 76.34 127.61 77.25 128.44 82.13 128.45 82.63 127.7 83.15 128.52 88.67 128.52 89.15 127.56 89.69 128.11 92.35 128.11 93.77 127.13 95.08 128.5 96.68 128.5 97.93 127.41 97.93 125.01 103.33 128.26 98.93 130.02 86.21 130.02 85.4 130.49 77.88 130.49 71.73 129.06 63.02 127.87 63.02 127.87"/><polygon class="fa9ecb65-3aed-4b41-8aa9-447d51baee25" points="69.28 124.62 69.97 127.33 68.49 127.33 67.14 125.98 69.28 124.62 69.28 124.62"/><polygon class="fa9ecb65-3aed-4b41-8aa9-447d51baee25" points="97.93 127.4 97.93 125.72 98.82 125.72 100.44 127.4 97.93 127.4 97.93 127.4"/><path class="a0ac6539-7d74-4f90-940c-86a71159e7ae" d="M86.47,104.83l-1.7.52,1.07-1.46h6.28l1.27,1.27-4.52.87-2.4-1.2Zm-8.09.58.86-.15-3.27-2-3.48,1,2.1,2.1,3.19-1.24.6.3Z"/><polygon class="ba514f5d-57cd-479c-8745-29cf42d5bc8c" points="54.94 64.78 64.82 68.57 75.32 69.32 75.32 68.16 71.53 63.83 61.66 61.2 55.84 61.2 55.11 61.62 51.4 59.8 43.24 65.98 40.47 74.94 40.93 75.06 45.61 67.14 54.94 64.78 54.94 64.78"/><polygon class="f2049d87-7cd1-4862-a325-3c657b78e816" points="56.81 65.5 64.82 68.57 75.32 69.32 75.32 68.16 71.53 63.83 69.91 63.4 67.23 64.94 66.61 63.87 59.61 61.99 52.84 63.81 56.81 65.5 56.81 65.5"/><polygon class="ba514f5d-57cd-479c-8745-29cf42d5bc8c" points="94.25 68.64 98.26 62.62 111.99 62.5 114.36 63.29 116.95 60.79 124.85 66.1 129.02 74.67 128.53 74.89 122.69 68.6 115.73 66.21 107.07 68.7 94.25 68.64 94.25 68.64"/><polygon class="f2049d87-7cd1-4862-a325-3c657b78e816" points="94.25 68.64 96.94 64.59 99.1 63.35 108.12 65.77 117.71 65.77 115.87 66.26 115.73 66.21 111.4 67.45 107.07 68.7 94.25 68.64 94.25 68.64"/><polygon class="bf9d411a-2506-4082-883d-76c94323bc14" points="103.72 110.12 105.26 110.12 105.26 111.67 103.72 111.67 103.72 110.12 103.72 110.12"/><polygon class="e40ef85a-3a3c-47df-a8d7-d035e1b2dec9" points="70.23 107.89 69.14 103.67 66.17 103.67 60.9 108.8 60.9 111.1 70.23 107.89 70.23 107.89"/><polygon class="f44157dc-66a8-4320-a077-003f0ea4bd71" points="58.28 126.55 53.62 130.29 52.12 125.88 56.73 124.22 58.28 126.55 58.28 126.55"/><polygon class="f44157dc-66a8-4320-a077-003f0ea4bd71" points="100.89 13.61 100.01 13.79 95.94 5.65 97.67 3.92 100.89 13.61 100.89 13.61"/><polygon class="f44157dc-66a8-4320-a077-003f0ea4bd71" points="136.96 119.64 144.28 119.62 157.19 106.62 159.12 90.34 155.68 83.44 150.14 83.44 156.62 86.66 157.97 89.36 155.41 105.35 144.29 108.78 143.66 109.86 138.6 109.86 140 111 136.96 119.64 136.96 119.64"/><polygon class="bcd96bc2-fa25-4ebf-8cd8-5eaf316a2c39" points="136.96 119.64 144.28 119.62 157.19 106.62 157.68 102.52 155.78 103.03 155.41 105.35 153.73 105.87 153.73 106.4 137.42 119.64 137.17 119.03 136.96 119.64 136.96 119.64"/><polygon class="f2049d87-7cd1-4862-a325-3c657b78e816" points="143.19 37.56 143.6 39.68 146.37 38.8 144.9 35.81 143.19 37.56 143.19 37.56"/><polygon class="f2049d87-7cd1-4862-a325-3c657b78e816" points="136.33 34.6 137.32 36.63 138.98 35.59 137.65 33.29 136.33 34.6 136.33 34.6"/><polygon class="f2049d87-7cd1-4862-a325-3c657b78e816" points="102.26 17.22 102 20.04 105.23 20.04 105.98 17.22 102.26 17.22 102.26 17.22"/><polygon class="f9b45fba-57d7-41e8-9b1b-63e61e5bcc6f" points="178.31 200.39 134.83 214.57 166.65 223.09 188.43 210.51 178.31 200.39 178.31 200.39"/><polygon class="f9b45fba-57d7-41e8-9b1b-63e61e5bcc6f" points="4.96 109.26 4.71 114.19 0 112.9 0.47 111 2.28 110.53 2.78 108.79 4.96 109.26 4.96 109.26"/><polygon class="f44157dc-66a8-4320-a077-003f0ea4bd71" points="162 39.89 162.25 44.82 166.97 43.53 166.5 41.62 164.69 41.15 164.19 39.42 162 39.89 162 39.89"/><polygon class="ac12aad5-cb13-4c54-a0bb-757163e701a6" points="164.8 158.12 165.05 163.05 169.76 161.76 169.3 159.85 167.49 159.38 166.98 157.65 164.8 158.12 164.8 158.12"/></svg>